<svg xmlns="http://www.w3.org/2000/svg" xmlns:xlink="http://www.w3.org/1999/xlink" viewBox="0 0 154.5 154.5" height="154.5" width="154.5" data-background-color="#f9f9f9" preserveAspectRatio="xMidYMid meet" id="tight-bounds"><g><svg/></g><g><svg viewBox="0 0 154.5 154.5" height="154.5" width="154.5"><g transform="matrix(1,0,0,1,61.877893858709676,59.016757278)"><svg viewBox="0 0 30.744212282580648 36.46648544399999" height="36.46648544399999" width="30.744212282580648"><g><svg viewBox="0 0 30.744212282580648 36.46648544399999" height="36.46648544399999" width="30.744212282580648"><g><svg viewBox="0 0 30.744212282580648 36.46648544399999" height="36.46648544399999" width="30.744212282580648"><g id="textblocktransform"><svg viewBox="0 0 30.744212282580648 36.46648544399999" height="36.46648544399999" width="30.744212282580648" id="textblock"><g><svg viewBox="0 0 30.744212282580648 36.46648544399999" height="36.46648544399999" width="30.744212282580648"><g><svg viewBox="0 0 30.744212282580648 36.46648544399999" height="36.46648544399999" width="30.744212282580648"><g><svg xmlns="http://www.w3.org/2000/svg" xmlns:xlink="http://www.w3.org/1999/xlink" version="1.1" x="0" y="0" viewBox="20.5 16.600000381469727 59.099998474121094 70.0999984741211" style="enable-background:new 0 0 100 100;" xml:space="preserve" height="36.46648544399999" width="30.744212282580648" class="icon-icon-0" data-fill-palette-color="accent" id="icon-0" fill="#000000"><g fill="#000000" data-fill-palette-color="accent"><path d="M53.1 16.6C52 16.6 51 16.7 50 16.8 49 16.7 47.9 16.6 46.9 16.6 32.3 16.6 20.5 28.5 20.5 43V86.7H79.6V43.1C79.6 28.5 67.7 16.6 53.1 16.6M28.7 84.7H22.5V43.1C22.5 31.3 30.8 21.5 41.9 19.2 43.2 18.9 44.6 18.7 46.1 18.7H47C48.1 18.7 49.1 18.8 50.1 18.9 62.1 20.4 71.4 30.7 71.4 43.1V84.8H28.7z" fill="#000000" data-fill-palette-color="accent"/><path d="M39.3 42.5L54.3 42.3C54.9 42.3 55.3 41.8 55.3 41.3S54.8 40.3 54.3 40.3L39.3 40.5C38.7 40.5 38.3 41 38.3 41.5S38.7 42.5 39.3 42.5" fill="#000000" data-fill-palette-color="accent"/><path d="M54.5 61.6L39.5 61.8C38.9 61.8 38.5 62.3 38.5 62.8S39 63.8 39.5 63.8L54.5 63.6C55.1 63.6 55.5 63.1 55.5 62.6S55.1 61.6 54.5 61.6" fill="#000000" data-fill-palette-color="accent"/><path d="M61.9 50.5L31.9 50.9C31.3 50.9 30.9 51.4 30.9 51.9S31.4 52.9 31.9 52.9L61.9 52.5C62.5 52.5 62.9 52 62.9 51.5S62.4 50.6 61.9 50.5" fill="#000000" data-fill-palette-color="accent"/></g></svg></g></svg></g></svg></g></svg></g></svg></g></svg></g></svg></g><g/></svg></g><defs/></svg>