<svg xmlns="http://www.w3.org/2000/svg" version="1.1" xmlns:xlink="http://www.w3.org/1999/xlink" xmlns:svgjs="http://svgjs.dev/svgjs" width="1500" height="1500" viewBox="0 0 1500 1500"><rect width="1500" height="1500" fill="#000000"></rect><g transform="matrix(0.6666666666666666,0,0,0.6666666666666666,249.39393939393938,435.99032258064517)"><svg viewBox="0 0 396 248" data-background-color="#f9f9f9" preserveAspectRatio="xMidYMid meet" height="939" width="1500" xmlns="http://www.w3.org/2000/svg" xmlns:xlink="http://www.w3.org/1999/xlink"><g id="tight-bounds" transform="matrix(1,0,0,1,0.2400000000000091,0.4000000000000057)"><svg viewBox="0 0 395.52 247.2" height="247.2" width="395.52"><g><svg></svg></g><g><svg viewBox="0 0 395.52 247.2" height="247.2" width="395.52"><g transform="matrix(1,0,0,1,75.54432,96.30908603157897)"><svg viewBox="0 0 244.43135999999998 54.58182793684205" height="54.58182793684205" width="244.43135999999998"><g><svg viewBox="0 0 311.0001207256025 69.44671533874354" height="54.58182793684205" width="244.43135999999998"><g transform="matrix(1,0,0,1,0,9.597917966497842)"><svg viewBox="0 0 244.43135999999998 50.25087940574786" height="50.25087940574786" width="244.43135999999998"><g id="textblocktransform"><svg viewBox="0 0 244.43135999999998 50.25087940574786" height="50.25087940574786" width="244.43135999999998" id="textblock"><g><svg viewBox="0 0 244.43135999999998 33.970131716873034" height="33.970131716873034" width="244.43135999999998"><g transform="matrix(1,0,0,1,0,0)"><svg width="244.43135999999998" viewBox="4.5 -37 270.53 37.6" height="33.970131716873034" data-palette-color="#030303"><path d="M25.5 0L4.5 0 4.5-35 25.5-35 25.5-30.9 9.25-30.9 9.25-20.25 23.25-20.25 23.25-16.25 9.25-16.25 9.25-4.1 25.5-4.1 25.5 0ZM39.85 0.6L39.85 0.6Q36.1 0.6 33.92-1.88 31.75-4.35 31.75-8.95L31.75-8.95 31.75-21.15 27.25-21.15 27.25-25.05 31.85-25.05 32.8-33.25 36.25-33.25 36.25-25.05 43.45-25.05 43.45-21.15 36.25-21.15 36.25-8.6Q36.25-5.7 37.47-4.55 38.7-3.4 40.4-3.4L40.4-3.4Q41.65-3.4 42.77-3.8 43.9-4.2 44.85-4.75L44.85-4.75 46.1-1.15Q45.1-0.55 43.4 0.03 41.7 0.6 39.85 0.6ZM59.99 0.6L59.99 0.6Q54.39 0.6 51.12-2.98 47.84-6.55 47.84-13L47.84-13Q47.84-16.9 49.32-19.98 50.8-23.05 53.45-24.83 56.09-26.6 59.59-26.6L59.59-26.6Q63.34-26.6 65.82-24.98 68.3-23.35 69.55-20.6 70.8-17.85 70.8-14.55L70.8-14.55Q70.8-12.8 70.64-11.15L70.64-11.15 52.45-11.15Q52.89-7.5 54.99-5.45 57.09-3.4 60.55-3.4L60.55-3.4Q62.8-3.4 64.59-3.88 66.39-4.35 68.05-5.1L68.05-5.1 69.09-1.25Q67.3-0.45 65.05 0.08 62.8 0.6 59.99 0.6ZM52.39-14.8L52.39-14.8 66.64-14.8Q66.64-18.6 64.75-20.65 62.84-22.7 59.49-22.7L59.49-22.7Q56.59-22.7 54.7-20.68 52.8-18.65 52.39-14.8ZM81.29 0L76.79 0 76.79-26 81.14-26 81.14-20.35Q81.79-22 82.89-23.43 83.99-24.85 85.64-25.73 87.29-26.6 89.49-26.6L89.49-26.6Q90.24-26.6 90.99-26.53 91.74-26.45 92.24-26.3L92.24-26.3 90.89-21.65Q89.94-22.05 88.64-22.05L88.64-22.05Q86.79-22.05 85.12-21 83.44-19.95 82.37-17.75 81.29-15.55 81.29-12.15L81.29-12.15 81.29 0ZM101.24 0L96.74 0 96.74-26 101.09-26 101.09-21.65Q102.49-23.75 104.67-25.18 106.84-26.6 109.84-26.6L109.84-26.6Q114.24-26.6 116.42-23.95 118.59-21.3 118.59-16.95L118.59-16.95 118.59 0 114.09 0 114.09-16.45Q114.09-19.25 112.77-20.95 111.44-22.65 109.09-22.65L109.09-22.65Q106.79-22.65 104.74-21.03 102.69-19.4 101.24-17.2L101.24-17.2 101.24 0ZM136.29 0.6L136.29 0.6Q133.04 0.6 130.39-1.05 127.74-2.7 126.16-5.73 124.59-8.75 124.59-12.85L124.59-12.85Q124.59-16.75 126.16-19.85 127.74-22.95 130.51-24.78 133.29-26.6 136.89-26.6L136.89-26.6Q139.14-26.6 140.96-25.83 142.79-25.05 144.14-23.9L144.14-23.9 144.14-26 148.24-26 148.24-6.3Q148.24-4.4 149.16-3.83 150.09-3.25 151.19-3.25L151.19-3.25 150.24 0.25Q145.44 0.25 144.44-3.65L144.44-3.65Q143.29-2.05 141.31-0.73 139.34 0.6 136.29 0.6ZM137.29-3.4L137.29-3.4Q139.19-3.4 140.89-4.33 142.59-5.25 143.74-6.65L143.74-6.65 143.74-20.6Q142.39-21.55 140.76-22.13 139.14-22.7 137.34-22.7L137.34-22.7Q134.94-22.7 133.11-21.48 131.29-20.25 130.24-18.07 129.19-15.9 129.19-13L129.19-13Q129.19-10.2 130.24-8.03 131.29-5.85 133.14-4.63 134.99-3.4 137.29-3.4ZM164.94 0L160.19 0 160.19-30.8 149.44-30.8 149.44-35 175.69-35 175.69-30.8 164.94-30.8 164.94 0ZM186.88 0.6L186.88 0.6Q183.18 0.6 180.23-1.13 177.28-2.85 175.61-5.93 173.93-9 173.93-13L173.93-13Q173.93-17.2 175.63-20.25 177.33-23.3 180.28-24.95 183.23-26.6 186.88-26.6L186.88-26.6Q190.53-26.6 193.46-24.95 196.38-23.3 198.11-20.28 199.83-17.25 199.83-13.1L199.83-13.1Q199.83-8.95 198.13-5.88 196.43-2.8 193.51-1.1 190.58 0.6 186.88 0.6ZM186.88-3.4L186.88-3.4Q190.83-3.4 193.03-6.08 195.23-8.75 195.23-13L195.23-13Q195.23-15.6 194.13-17.78 193.03-19.95 191.16-21.28 189.28-22.6 186.88-22.6L186.88-22.6Q182.93-22.6 180.73-20 178.53-17.4 178.53-13.1L178.53-13.1Q178.53-10.5 179.63-8.28 180.73-6.05 182.61-4.73 184.48-3.4 186.88-3.4ZM210.33 0L205.83 0 205.83-26 210.18-26 210.18-21.65Q211.58-23.75 213.73-25.18 215.88-26.6 218.63-26.6L218.63-26.6Q221.73-26.6 223.71-25.1 225.68-23.6 226.48-21.1L226.48-21.1Q228.03-23.4 230.16-25 232.28-26.6 235.43-26.6L235.43-26.6Q239.68-26.6 241.76-23.93 243.83-21.25 243.83-16.95L243.83-16.95 243.83 0 239.33 0 239.33-16.6Q239.33-19.3 238.08-20.98 236.83-22.65 234.63-22.65L234.63-22.65Q232.38-22.65 230.46-20.98 228.53-19.3 227.08-17.05L227.08-17.05 227.08 0 222.58 0 222.58-16.6Q222.58-19.3 221.33-20.98 220.08-22.65 217.88-22.65L217.88-22.65Q215.68-22.65 213.73-21.03 211.78-19.4 210.33-17.2L210.33-17.2 210.33 0ZM263.28 0.6L263.28 0.6Q261.03 0.6 259.05-0.23 257.08-1.05 255.78-2.15L255.78-2.15 255.78 0 251.58 0 251.58-37 256.08-37 256.08-23.3Q257.08-24.45 259-25.53 260.93-26.6 263.58-26.6L263.58-26.6Q266.58-26.6 269.2-25.03 271.83-23.45 273.43-20.48 275.03-17.5 275.03-13.25L275.03-13.25Q275.03-10.15 274.03-7.6 273.03-5.05 271.35-3.23 269.68-1.4 267.58-0.4 265.48 0.6 263.28 0.6ZM262.08-3.4L262.08-3.4Q264.53-3.4 266.4-4.6 268.28-5.8 269.35-8 270.43-10.2 270.43-13.1L270.43-13.1Q270.43-16.1 269.35-18.25 268.28-20.4 266.5-21.55 264.73-22.7 262.58-22.7L262.58-22.7Q260.43-22.7 258.7-21.63 256.98-20.55 256.08-19.3L256.08-19.3 256.08-5.4Q257.23-4.5 258.78-3.95 260.33-3.4 262.08-3.4Z" opacity="1" transform="matrix(1,0,0,1,0,0)" fill="#ffffff" class="wordmark-text-0" data-fill-palette-color="primary" id="text-0"></path></svg></g></svg></g><g transform="matrix(1,0,0,1,100.925708544,41.989664532065554)"><svg viewBox="0 0 143.50565145599998 8.261214873682306" height="8.261214873682306" width="143.50565145599998"><g transform="matrix(1,0,0,1,0,0)"><svg width="143.50565145599998" viewBox="4.5 -37 653.08 37.6" height="8.261214873682306" data-palette-color="#030303"><path d="M25.5 0L4.5 0 4.5-35 25.5-35 25.5-30.9 9.25-30.9 9.25-20.25 23.25-20.25 23.25-16.25 9.25-16.25 9.25-4.1 25.5-4.1 25.5 0ZM39.85 0.6L39.85 0.6Q36.1 0.6 33.92-1.88 31.75-4.35 31.75-8.95L31.75-8.95 31.75-21.15 27.25-21.15 27.25-25.05 31.85-25.05 32.8-33.25 36.25-33.25 36.25-25.05 43.45-25.05 43.45-21.15 36.25-21.15 36.25-8.6Q36.25-5.7 37.47-4.55 38.7-3.4 40.4-3.4L40.4-3.4Q41.65-3.4 42.77-3.8 43.9-4.2 44.85-4.75L44.85-4.75 46.1-1.15Q45.1-0.55 43.4 0.03 41.7 0.6 39.85 0.6ZM59.99 0.6L59.99 0.6Q54.39 0.6 51.12-2.98 47.84-6.55 47.84-13L47.84-13Q47.84-16.9 49.32-19.98 50.8-23.05 53.45-24.83 56.09-26.6 59.59-26.6L59.59-26.6Q63.34-26.6 65.82-24.98 68.3-23.35 69.55-20.6 70.8-17.85 70.8-14.55L70.8-14.55Q70.8-12.8 70.64-11.15L70.64-11.15 52.45-11.15Q52.89-7.5 54.99-5.45 57.09-3.4 60.55-3.4L60.55-3.4Q62.8-3.4 64.59-3.88 66.39-4.35 68.05-5.1L68.05-5.1 69.09-1.25Q67.3-0.45 65.05 0.08 62.8 0.6 59.99 0.6ZM52.39-14.8L52.39-14.8 66.64-14.8Q66.64-18.6 64.75-20.65 62.84-22.7 59.49-22.7L59.49-22.7Q56.59-22.7 54.7-20.68 52.8-18.65 52.39-14.8ZM81.29 0L76.79 0 76.79-26 81.14-26 81.14-20.35Q81.79-22 82.89-23.43 83.99-24.85 85.64-25.73 87.29-26.6 89.49-26.6L89.49-26.6Q90.24-26.6 90.99-26.53 91.74-26.45 92.24-26.3L92.24-26.3 90.89-21.65Q89.94-22.05 88.64-22.05L88.64-22.05Q86.79-22.05 85.12-21 83.44-19.95 82.37-17.75 81.29-15.55 81.29-12.15L81.29-12.15 81.29 0ZM101.24 0L96.74 0 96.74-26 101.09-26 101.09-21.65Q102.49-23.75 104.67-25.18 106.84-26.6 109.84-26.6L109.84-26.6Q114.24-26.6 116.42-23.95 118.59-21.3 118.59-16.95L118.59-16.95 118.59 0 114.09 0 114.09-16.45Q114.09-19.25 112.77-20.95 111.44-22.65 109.09-22.65L109.09-22.65Q106.79-22.65 104.74-21.03 102.69-19.4 101.24-17.2L101.24-17.2 101.24 0ZM136.29 0.6L136.29 0.6Q133.04 0.6 130.39-1.05 127.74-2.7 126.16-5.73 124.59-8.75 124.59-12.85L124.59-12.85Q124.59-16.75 126.16-19.85 127.74-22.95 130.51-24.78 133.29-26.6 136.89-26.6L136.89-26.6Q139.14-26.6 140.96-25.83 142.79-25.05 144.14-23.9L144.14-23.9 144.14-26 148.24-26 148.24-6.3Q148.24-4.4 149.16-3.83 150.09-3.25 151.19-3.25L151.19-3.25 150.24 0.25Q145.44 0.25 144.44-3.65L144.44-3.65Q143.29-2.05 141.31-0.73 139.34 0.6 136.29 0.6ZM137.29-3.4L137.29-3.4Q139.19-3.4 140.89-4.33 142.59-5.25 143.74-6.65L143.74-6.65 143.74-20.6Q142.39-21.55 140.76-22.13 139.14-22.7 137.34-22.7L137.34-22.7Q134.94-22.7 133.11-21.48 131.29-20.25 130.24-18.07 129.19-15.9 129.19-13L129.19-13Q129.19-10.2 130.24-8.03 131.29-5.85 133.14-4.63 134.99-3.4 137.29-3.4ZM160.69-19.9L160.69-19.9Q159.34-19.9 158.34-20.9 157.34-21.9 157.34-23.25L157.34-23.25Q157.34-24.8 158.24-25.7 159.13-26.6 160.69-26.6L160.69-26.6Q161.99-26.6 163.01-25.6 164.03-24.6 164.03-23.25L164.03-23.25Q164.03-21.75 163.09-20.83 162.13-19.9 160.69-19.9ZM160.69 0.6L160.69 0.6Q159.34 0.6 158.34-0.4 157.34-1.4 157.34-2.75L157.34-2.75Q157.34-4.3 158.24-5.2 159.13-6.1 160.69-6.1L160.69-6.1Q161.99-6.1 163.01-5.1 164.03-4.1 164.03-2.75L164.03-2.75Q164.03-1.25 163.09-0.33 162.13 0.6 160.69 0.6ZM199.18 0L194.43 0 194.43-30.8 183.68-30.8 183.68-35 209.93-35 209.93-30.8 199.18-30.8 199.18 0ZM218.93 0L214.43 0 214.43-26 218.93-26 218.93 0ZM216.68-30.45L216.68-30.45Q215.38-30.45 214.45-31.4 213.53-32.35 213.53-33.6L213.53-33.6Q213.53-35.05 214.38-35.9 215.23-36.75 216.68-36.75L216.68-36.75Q217.98-36.75 218.9-35.83 219.83-34.9 219.83-33.6L219.83-33.6Q219.83-32.2 218.98-31.33 218.13-30.45 216.68-30.45ZM231.43 0L226.93 0 226.93-26 231.28-26 231.28-21.65Q232.68-23.75 234.83-25.18 236.98-26.6 239.73-26.6L239.73-26.6Q242.83-26.6 244.8-25.1 246.78-23.6 247.58-21.1L247.58-21.1Q249.13-23.4 251.25-25 253.38-26.6 256.53-26.6L256.53-26.6Q260.78-26.6 262.85-23.93 264.93-21.25 264.93-16.95L264.93-16.95 264.93 0 260.43 0 260.43-16.6Q260.43-19.3 259.18-20.98 257.93-22.65 255.73-22.65L255.73-22.65Q253.48-22.65 251.55-20.98 249.63-19.3 248.18-17.05L248.18-17.05 248.18 0 243.68 0 243.68-16.6Q243.68-19.3 242.43-20.98 241.18-22.65 238.98-22.65L238.98-22.65Q236.78-22.65 234.83-21.03 232.88-19.4 231.43-17.2L231.43-17.2 231.43 0ZM283.07 0.6L283.07 0.6Q277.47 0.6 274.2-2.98 270.92-6.55 270.92-13L270.92-13Q270.92-16.9 272.4-19.98 273.87-23.05 276.52-24.83 279.17-26.6 282.67-26.6L282.67-26.6Q286.42-26.6 288.9-24.98 291.37-23.35 292.62-20.6 293.87-17.85 293.87-14.55L293.87-14.55Q293.87-12.8 293.72-11.15L293.72-11.15 275.52-11.15Q275.97-7.5 278.07-5.45 280.17-3.4 283.62-3.4L283.62-3.4Q285.87-3.4 287.67-3.88 289.47-4.35 291.12-5.1L291.12-5.1 292.17-1.25Q290.37-0.45 288.12 0.08 285.87 0.6 283.07 0.6ZM275.47-14.8L275.47-14.8 289.72-14.8Q289.72-18.6 287.82-20.65 285.92-22.7 282.57-22.7L282.57-22.7Q279.67-22.7 277.77-20.68 275.87-18.65 275.47-14.8ZM307.77 0.6L307.77 0.6Q305.47 0.6 303.62-0.28 301.77-1.15 300.69-3.1 299.62-5.05 299.62-8.15L299.62-8.15 299.62-37 304.12-37 304.12-8.6Q304.12-5.9 305.25-4.6 306.37-3.3 308.37-3.3L308.37-3.3Q309.32-3.3 310.25-3.53 311.17-3.75 311.82-4.05L311.82-4.05 312.92-0.4Q312.02 0 310.69 0.3 309.37 0.6 307.77 0.6ZM326.82 0.6L326.82 0.6Q321.22 0.6 317.94-2.98 314.67-6.55 314.67-13L314.67-13Q314.67-16.9 316.14-19.98 317.62-23.05 320.27-24.83 322.92-26.6 326.42-26.6L326.42-26.6Q330.17-26.6 332.64-24.98 335.12-23.35 336.37-20.6 337.62-17.85 337.62-14.55L337.62-14.55Q337.62-12.8 337.47-11.15L337.47-11.15 319.27-11.15Q319.72-7.5 321.82-5.45 323.92-3.4 327.37-3.4L327.37-3.4Q329.62-3.4 331.42-3.88 333.22-4.35 334.87-5.1L334.87-5.1 335.92-1.25Q334.12-0.45 331.87 0.08 329.62 0.6 326.82 0.6ZM319.22-14.8L319.22-14.8 333.47-14.8Q333.47-18.6 331.57-20.65 329.67-22.7 326.32-22.7L326.32-22.7Q323.42-22.7 321.52-20.68 319.62-18.65 319.22-14.8ZM350.62 0.6L350.62 0.6Q347.67 0.6 345.29-0.15 342.92-0.9 341.37-2.1L341.37-2.1 343.26-5.85Q344.56-4.75 346.54-4.03 348.51-3.3 350.76-3.3L350.76-3.3Q353.56-3.3 354.99-4.23 356.42-5.15 356.42-6.6L356.42-6.6Q356.42-7.65 355.89-8.45 355.37-9.25 353.97-10.03 352.56-10.8 349.92-11.7L349.92-11.7Q346.26-12.95 344.44-14.68 342.62-16.4 342.62-19.45L342.62-19.45Q342.62-22.45 345.24-24.53 347.87-26.6 352.51-26.6L352.51-26.6Q355.01-26.6 356.97-26.08 358.92-25.55 360.47-24.75L360.47-24.75 359.22-21.05Q357.87-21.85 356.14-22.35 354.42-22.85 352.31-22.85L352.31-22.85Q349.72-22.85 348.37-21.8 347.01-20.75 347.01-19.5L347.01-19.5Q347.01-18.3 348.06-17.45 349.12-16.6 352.17-15.6L352.17-15.6Q357.12-13.95 359.06-11.95 361.01-9.95 361.01-6.95L361.01-6.95Q361.01-3.45 358.19-1.43 355.37 0.6 350.62 0.6ZM374.01 0.6L374.01 0.6Q371.06 0.6 368.69-0.15 366.31-0.9 364.76-2.1L364.76-2.1 366.66-5.85Q367.96-4.75 369.94-4.03 371.91-3.3 374.16-3.3L374.16-3.3Q376.96-3.3 378.39-4.23 379.81-5.15 379.81-6.6L379.81-6.6Q379.81-7.65 379.29-8.45 378.76-9.25 377.36-10.03 375.96-10.8 373.31-11.7L373.31-11.7Q369.66-12.95 367.84-14.68 366.01-16.4 366.01-19.45L366.01-19.45Q366.01-22.45 368.64-24.53 371.26-26.6 375.91-26.6L375.91-26.6Q378.41-26.6 380.36-26.08 382.31-25.55 383.86-24.75L383.86-24.75 382.61-21.05Q381.26-21.85 379.54-22.35 377.81-22.85 375.71-22.85L375.71-22.85Q373.11-22.85 371.76-21.8 370.41-20.75 370.41-19.5L370.41-19.5Q370.41-18.3 371.46-17.45 372.51-16.6 375.56-15.6L375.56-15.6Q380.51-13.95 382.46-11.95 384.41-9.95 384.41-6.95L384.41-6.95Q384.41-3.45 381.59-1.43 378.76 0.6 374.01 0.6ZM419.36 0.6L419.36 0.6Q414.81 0.6 411.31-1.58 407.81-3.75 405.86-7.78 403.91-11.8 403.91-17.35L403.91-17.35Q403.91-22.7 405.88-26.83 407.86-30.95 411.48-33.27 415.11-35.6 419.96-35.6L419.96-35.6Q422.46-35.6 424.51-35.13 426.56-34.65 428.36-33.8L428.36-33.8 426.91-29.8Q425.36-30.55 423.73-31 422.11-31.45 419.91-31.45L419.91-31.45Q416.71-31.45 414.18-29.8 411.66-28.15 410.21-25.05 408.76-21.95 408.76-17.55L408.76-17.55Q408.76-13.35 410.18-10.2 411.61-7.05 414.13-5.3 416.66-3.55 419.91-3.55L419.91-3.55Q422.36-3.55 424.16-4.15 425.96-4.75 427.66-5.7L427.66-5.7 429.11-1.75Q427.26-0.75 424.88-0.08 422.51 0.6 419.36 0.6ZM444.55 0.6L444.55 0.6Q440.85 0.6 437.9-1.13 434.95-2.85 433.28-5.93 431.6-9 431.6-13L431.6-13Q431.6-17.2 433.3-20.25 435-23.3 437.95-24.95 440.9-26.6 444.55-26.6L444.55-26.6Q448.2-26.6 451.13-24.95 454.05-23.3 455.78-20.28 457.5-17.25 457.5-13.1L457.5-13.1Q457.5-8.95 455.8-5.88 454.1-2.8 451.18-1.1 448.25 0.6 444.55 0.6ZM444.55-3.4L444.55-3.4Q448.5-3.4 450.7-6.08 452.9-8.75 452.9-13L452.9-13Q452.9-15.6 451.8-17.78 450.7-19.95 448.83-21.28 446.95-22.6 444.55-22.6L444.55-22.6Q440.6-22.6 438.4-20 436.2-17.4 436.2-13.1L436.2-13.1Q436.2-10.5 437.3-8.28 438.4-6.05 440.28-4.73 442.15-3.4 444.55-3.4ZM468 0L463.5 0 463.5-26 467.85-26 467.85-21.65Q469.25-23.75 471.43-25.18 473.6-26.6 476.6-26.6L476.6-26.6Q481-26.6 483.18-23.95 485.35-21.3 485.35-16.95L485.35-16.95 485.35 0 480.85 0 480.85-16.45Q480.85-19.25 479.53-20.95 478.2-22.65 475.85-22.65L475.85-22.65Q473.55-22.65 471.5-21.03 469.45-19.4 468-17.2L468-17.2 468 0ZM497.6 0L493.1 0 493.1-26 497.45-26 497.45-21.65Q498.85-23.75 501.02-25.18 503.2-26.6 506.2-26.6L506.2-26.6Q510.6-26.6 512.77-23.95 514.95-21.3 514.95-16.95L514.95-16.95 514.95 0 510.45 0 510.45-16.45Q510.45-19.25 509.12-20.95 507.8-22.65 505.45-22.65L505.45-22.65Q503.15-22.65 501.1-21.03 499.05-19.4 497.6-17.2L497.6-17.2 497.6 0ZM533.1 0.6L533.1 0.6Q527.5 0.6 524.22-2.98 520.95-6.55 520.95-13L520.95-13Q520.95-16.9 522.42-19.98 523.9-23.05 526.55-24.83 529.2-26.6 532.7-26.6L532.7-26.6Q536.45-26.6 538.92-24.98 541.4-23.35 542.65-20.6 543.9-17.85 543.9-14.55L543.9-14.55Q543.9-12.8 543.75-11.15L543.75-11.15 525.55-11.15Q526-7.5 528.1-5.45 530.2-3.4 533.65-3.4L533.65-3.4Q535.9-3.4 537.7-3.88 539.5-4.35 541.15-5.1L541.15-5.1 542.2-1.25Q540.4-0.45 538.15 0.08 535.9 0.6 533.1 0.6ZM525.5-14.8L525.5-14.8 539.75-14.8Q539.75-18.6 537.85-20.65 535.95-22.7 532.6-22.7L532.6-22.7Q529.7-22.7 527.8-20.68 525.9-18.65 525.5-14.8ZM560.39 0.6L560.39 0.6Q556.69 0.6 553.92-1.13 551.14-2.85 549.64-5.93 548.14-9 548.14-13L548.14-13Q548.14-16.75 549.67-19.85 551.19-22.95 554.04-24.78 556.89-26.6 560.74-26.6L560.74-26.6Q562.94-26.6 564.62-26.2 566.29-25.8 567.84-25.05L567.84-25.05 566.49-21.25Q565.09-21.95 563.82-22.28 562.54-22.6 560.99-22.6L560.99-22.6Q557.49-22.6 555.12-20.08 552.74-17.55 552.74-13.1L552.74-13.1Q552.74-10.4 553.74-8.2 554.74-6 556.52-4.7 558.29-3.4 560.69-3.4L560.69-3.4Q562.59-3.4 563.94-3.83 565.29-4.25 566.84-5.05L566.84-5.05 568.24-1.25Q566.69-0.4 564.77 0.1 562.84 0.6 560.39 0.6ZM582.59 0.6L582.59 0.6Q578.84 0.6 576.67-1.88 574.49-4.35 574.49-8.95L574.49-8.95 574.49-21.15 569.99-21.15 569.99-25.05 574.59-25.05 575.54-33.25 578.99-33.25 578.99-25.05 586.19-25.05 586.19-21.15 578.99-21.15 578.99-8.6Q578.99-5.7 580.22-4.55 581.44-3.4 583.14-3.4L583.14-3.4Q584.39-3.4 585.52-3.8 586.64-4.2 587.59-4.75L587.59-4.75 588.84-1.15Q587.84-0.55 586.14 0.03 584.44 0.6 582.59 0.6ZM597.84 0L593.34 0 593.34-26 597.84-26 597.84 0ZM595.59-30.45L595.59-30.45Q594.29-30.45 593.36-31.4 592.44-32.35 592.44-33.6L592.44-33.6Q592.44-35.05 593.29-35.9 594.14-36.75 595.59-36.75L595.59-36.75Q596.89-36.75 597.81-35.83 598.74-34.9 598.74-33.6L598.74-33.6Q598.74-32.2 597.89-31.33 597.04-30.45 595.59-30.45ZM616.79 0.6L616.79 0.6Q613.09 0.6 610.14-1.13 607.19-2.85 605.51-5.93 603.84-9 603.84-13L603.84-13Q603.84-17.2 605.54-20.25 607.24-23.3 610.19-24.95 613.14-26.6 616.79-26.6L616.79-26.6Q620.44-26.6 623.36-24.95 626.29-23.3 628.01-20.28 629.74-17.25 629.74-13.1L629.74-13.1Q629.74-8.95 628.04-5.88 626.34-2.8 623.41-1.1 620.49 0.6 616.79 0.6ZM616.79-3.4L616.79-3.4Q620.74-3.4 622.94-6.08 625.14-8.75 625.14-13L625.14-13Q625.14-15.6 624.04-17.78 622.94-19.95 621.06-21.28 619.19-22.6 616.79-22.6L616.79-22.6Q612.84-22.6 610.64-20 608.44-17.4 608.44-13.1L608.44-13.1Q608.44-10.5 609.54-8.28 610.64-6.05 612.51-4.73 614.39-3.4 616.79-3.4ZM640.23 0L635.73 0 635.73-26 640.08-26 640.08-21.65Q641.48-23.75 643.66-25.18 645.83-26.6 648.83-26.6L648.83-26.6Q653.23-26.6 655.41-23.95 657.58-21.3 657.58-16.95L657.58-16.95 657.58 0 653.08 0 653.08-16.45Q653.08-19.25 651.76-20.95 650.43-22.65 648.08-22.65L648.08-22.65Q645.78-22.65 643.73-21.03 641.68-19.4 640.23-17.2L640.23-17.2 640.23 0Z" opacity="1" transform="matrix(1,0,0,1,0,0)" fill="#ffffff" class="slogan-text-1" data-fill-palette-color="secondary" id="text-1"></path></svg></g></svg></g></svg></g></svg></g><g transform="matrix(1,0,0,1,252.4508928151925,0)"><svg viewBox="0 0 58.54922791041003 69.44671533874354" height="69.44671533874354" width="58.54922791041003"><g><svg xmlns="http://www.w3.org/2000/svg" xmlns:xlink="http://www.w3.org/1999/xlink" version="1.1" x="0" y="0" viewBox="20.5 16.6 59.099999999999994 70.1" style="enable-background:new 0 0 100 100;" xml:space="preserve" height="69.44671533874354" width="58.54922791041003" class="icon-icon-0" data-fill-palette-color="accent" id="icon-0"><g fill="#030303" data-fill-palette-color="accent"><path d="M53.1 16.6C52 16.6 51 16.7 50 16.8 49 16.7 47.9 16.6 46.9 16.6 32.3 16.6 20.5 28.5 20.5 43V86.7H79.6V43.1C79.6 28.5 67.7 16.6 53.1 16.6M28.7 84.7H22.5V43.1C22.5 31.3 30.8 21.5 41.9 19.2 43.2 18.9 44.6 18.7 46.1 18.7H47C48.1 18.7 49.1 18.8 50.1 18.9 62.1 20.4 71.4 30.7 71.4 43.1V84.8H28.7z" fill="#ffffff" data-fill-palette-color="accent"></path><path d="M39.3 42.5L54.3 42.3C54.9 42.3 55.3 41.8 55.3 41.3S54.8 40.3 54.3 40.3L39.3 40.5C38.7 40.5 38.3 41 38.3 41.5S38.7 42.5 39.3 42.5" fill="#ffffff" data-fill-palette-color="accent"></path><path d="M54.5 61.6L39.5 61.8C38.9 61.8 38.5 62.3 38.5 62.8S39 63.8 39.5 63.8L54.5 63.6C55.1 63.6 55.5 63.1 55.5 62.6S55.1 61.6 54.5 61.6" fill="#ffffff" data-fill-palette-color="accent"></path><path d="M61.9 50.5L31.9 50.9C31.3 50.9 30.9 51.4 30.9 51.9S31.4 52.9 31.9 52.9L61.9 52.5C62.5 52.5 62.9 52 62.9 51.5S62.4 50.6 61.9 50.5" fill="#ffffff" data-fill-palette-color="accent"></path></g></svg></g></svg></g></svg></g></svg></g><g><path d="M245.816 0c68.262 0 123.6 55.338 123.6 123.6 0 68.262-55.338 123.6-123.6 123.6-57.757 0-106.262-39.616-119.823-93.158l1.242 0c13.533 52.87 61.492 91.954 118.581 91.954 67.598 0 122.396-54.799 122.396-122.396 0-67.598-54.799-122.396-122.396-122.396-57.088 0-105.048 39.084-118.581 91.954l-1.242 0c13.561-53.542 62.066-93.158 119.823-93.158z" fill="#ffffff" stroke="transparent" data-fill-palette-color="tertiary"></path></g></svg></g><defs></defs></svg><rect width="395.52" height="247.2" fill="none" stroke="none" visibility="hidden"></rect></g></svg></g></svg>