<svg xmlns="http://www.w3.org/2000/svg" version="1.1" xmlns:xlink="http://www.w3.org/1999/xlink" xmlns:svgjs="http://svgjs.dev/svgjs" width="1500" height="939" viewBox="0 0 1500 939"><g transform="matrix(1,0,0,1,-0.9090909090909918,-1.5145161290323017)"><svg viewBox="0 0 396 248" data-background-color="#ffffff" preserveAspectRatio="xMidYMid meet" height="939" width="1500" xmlns="http://www.w3.org/2000/svg" xmlns:xlink="http://www.w3.org/1999/xlink"><g id="tight-bounds" transform="matrix(1,0,0,1,0.2400000000000091,0.4000000000000057)"><svg viewBox="0 0 395.52 247.2" height="247.2" width="395.52"><g><svg></svg></g><g><svg viewBox="0 0 395.52 247.2" height="247.2" width="395.52"><g transform="matrix(1,0,0,1,75.54432,94.69433243004832)"><svg viewBox="0 0 244.43135999999998 57.81133513990336" height="57.81133513990336" width="244.43135999999998"><g><svg viewBox="0 0 244.43135999999998 57.81133513990336" height="57.81133513990336" width="244.43135999999998"><g><svg viewBox="0 0 316.9152799852567 74.95476628769723" height="57.81133513990336" width="244.43135999999998"><g transform="matrix(1,0,0,1,0,7.007470507993872)"><svg viewBox="0 0 244.43135999999996 60.93982527170948" height="60.93982527170948" width="244.43135999999996"><g id="textblocktransform"><svg viewBox="0 0 244.43135999999996 60.93982527170948" height="60.93982527170948" width="244.43135999999996" id="textblock"><g><svg viewBox="0 0 244.43135999999996 39.35578903394255" height="39.35578903394255" width="244.43135999999996"><g transform="matrix(1,0,0,1,0,0)"><svg width="244.43135999999996" viewBox="1.55 -36.5 229.79 37" height="39.35578903394255" data-palette-color="#aaaaaa"><path d="M18.8 0L14.65 0 14.65-32.85 1.55-32.85 1.55-36.5 31.9-36.5 31.9-32.85 18.8-32.85 18.8 0ZM40.5 0.5L40.5 0.5Q36.65 0.5 33.77-1.15 30.9-2.8 29.37-5.85 27.85-8.9 27.85-13L27.85-13Q27.85-17.15 29.37-20.18 30.9-23.2 33.77-24.85 36.65-26.5 40.5-26.5L40.5-26.5Q44.4-26.5 47.22-24.85 50.05-23.2 51.6-20.18 53.15-17.15 53.15-13L53.15-13Q53.15-8.9 51.6-5.85 50.05-2.8 47.22-1.15 44.4 0.5 40.5 0.5ZM40.5-2.85L40.5-2.85Q44.6-2.85 46.92-5.55 49.25-8.25 49.25-13L49.25-13Q49.25-17.8 46.92-20.48 44.6-23.15 40.5-23.15L40.5-23.15Q36.4-23.15 34.07-20.48 31.75-17.8 31.75-13L31.75-13Q31.75-8.25 34.07-5.55 36.4-2.85 40.5-2.85ZM63.34 0L59.5 0 59.5-26 63.2-26 63.25-22.15 63.34-22.15Q64.59-24.25 66.67-25.38 68.75-26.5 71.45-26.5L71.45-26.5Q74.15-26.5 76.07-25.38 78-24.25 78.75-22.15L78.75-22.15 78.84-22.15Q80.05-24.35 82.17-25.43 84.3-26.5 87.3-26.5L87.3-26.5Q91.59-26.5 93.47-24.05 95.34-21.6 95.34-15.8L95.34-15.8 95.34 0 91.44 0 91.44-15.3Q91.44-19.55 90.25-21.35 89.05-23.15 86.2-23.15L86.2-23.15Q82.84-23.15 81.09-20.88 79.34-18.6 79.34-14.2L79.34-14.2 79.34 0 75.5 0 75.5-17Q75.5-19.9 74.09-21.53 72.7-23.15 70.25-23.15L70.25-23.15Q67.2-23.15 65.27-20.68 63.34-18.2 63.34-14.2L63.34-14.2 63.34 0ZM115.94 0.5L115.94 0.5Q113.09 0.5 110.67-0.58 108.24-1.65 106.84-3.5L106.84-3.5 106.74-3.5 106.74 0 102.94 0 102.94-36.5 106.89-36.5 106.89-22.5 106.99-22.5Q108.34-24.4 110.72-25.45 113.09-26.5 115.94-26.5L115.94-26.5Q121.14-26.5 124.04-22.93 126.94-19.35 126.94-13L126.94-13Q126.94-6.65 124.04-3.08 121.14 0.5 115.94 0.5ZM115.09-2.85L115.09-2.85Q118.94-2.85 121.02-5.48 123.09-8.1 123.09-13L123.09-13Q123.09-17.9 121.02-20.53 118.94-23.15 115.09-23.15L115.09-23.15Q112.74-23.15 110.89-22.18 109.04-21.2 107.97-19.53 106.89-17.85 106.89-15.6L106.89-15.6 106.89-10.4Q106.89-8.2 107.97-6.5 109.04-4.8 110.89-3.83 112.74-2.85 115.09-2.85ZM137.74 0L133.74 0 133.74-36.5 138.29-36.5 157.99-6.35 158.09-6.35 158.09-36.5 162.09-36.5 162.09 0 157.59 0 137.84-30.15 137.74-30.15 137.74 0ZM175.39 0L171.39 0 171.39-36.5 195.74-36.5 195.74-32.85 175.39-32.85 175.39-19.8 194.74-19.8 194.74-16.2 175.39-16.2 175.39 0ZM218.24 0L214.09 0 214.09-32.85 200.99-32.85 200.99-36.5 231.34-36.5 231.34-32.85 218.24-32.85 218.24 0Z" opacity="1" transform="matrix(1,0,0,1,0,0)" fill="#aaaaaa" class="wordmark-text-0" data-fill-palette-color="primary" id="text-0"></path></svg></g></svg></g><g transform="matrix(1,0,0,1,12.221568000000019,48.64674628591957)"><svg viewBox="0 0 232.20979199999994 12.293078985789911" height="12.293078985789911" width="232.20979199999994"><g transform="matrix(1,0,0,1,0,0)"><svg width="232.20979199999994" viewBox="3.6 -37.5 717.73 38" height="12.293078985789911" data-palette-color="#aaaaaa"><path d="M11.8 0.5L11.8 0.5Q9.35 0.5 7.25 0.05 5.15-0.4 3.6-1.1L3.6-1.1 3.6-36.5 7.5-36.5 7.5-2.3 6.6-4.45Q7.75-3.75 9.18-3.38 10.6-3 12.2-3L12.2-3Q14.65-3 16.07-3.98 17.5-4.95 18.1-7.25 18.7-9.55 18.7-13.45L18.7-13.45Q18.7-17.1 18.18-19.18 17.65-21.25 16.43-22.13 15.2-23 13-23L13-23Q11.4-23 9.9-22.6 8.4-22.2 6.8-21.35L6.8-21.35 5.55-24.65Q7.2-25.6 9.18-26.05 11.15-26.5 13.3-26.5L13.3-26.5Q16.75-26.5 18.78-25.25 20.8-24 21.7-21.15 22.6-18.3 22.6-13.5L22.6-13.5Q22.6-8.45 21.53-5.35 20.45-2.25 18.1-0.88 15.75 0.5 11.8 0.5ZM37.95 0.5L37.95 0.5Q34.25 0.5 32.12-0.35 30-1.2 29.12-3.28 28.25-5.35 28.25-9L28.25-9 28.25-26 32.15-26 32.15-9.2Q32.15-6.8 32.65-5.45 33.15-4.1 34.42-3.55 35.7-3 38-3L38-3Q39.2-3 40.17-3.15 41.15-3.3 42.12-3.65 43.1-4 44.25-4.6L44.25-4.6 42.85-2.1 42.85-26 46.75-26 46.75-1.1Q44.9-0.3 42.75 0.1 40.6 0.5 37.95 0.5ZM67 0L63 0 63-22.5 54-22.5 54-26 67-26 67 0ZM64.2-30.7L64.2-30.7Q62.6-30.7 61.62-31.63 60.65-32.55 60.65-34.1L60.65-34.1Q60.65-35.7 61.62-36.6 62.6-37.5 64.2-37.5L64.2-37.5Q65.8-37.5 66.77-36.6 67.75-35.7 67.75-34.1L67.75-34.1Q67.75-32.55 66.77-31.63 65.8-30.7 64.2-30.7ZM92.64 0.5L92.64 0.5Q88.54 0.5 86.77-1.3 84.99-3.1 84.99-7.35L84.99-7.35 84.99-33 76.99-33 76.99-36.5 88.99-36.5 88.99-8.2Q88.99-5.25 89.97-4.13 90.94-3 93.54-3L93.54-3Q94.84-3 95.92-3.23 96.99-3.45 97.99-3.85L97.99-3.85 97.99-0.35Q96.69 0.1 95.37 0.3 94.04 0.5 92.64 0.5ZM113.19 0.5L113.19 0.5Q109.29 0.5 106.92-0.88 104.54-2.25 103.47-5.35 102.39-8.45 102.39-13.5L102.39-13.5Q102.39-18.3 103.29-21.15 104.19-24 106.24-25.25 108.29-26.5 111.69-26.5L111.69-26.5Q113.84-26.5 115.82-26.05 117.79-25.6 119.44-24.65L119.44-24.65 118.19-21.35Q116.64-22.2 115.12-22.6 113.59-23 111.99-23L111.99-23Q109.84-23 108.59-22.13 107.34-21.25 106.82-19.18 106.29-17.1 106.29-13.45L106.29-13.45Q106.29-9.55 106.89-7.25 107.49-4.95 108.92-3.98 110.34-3 112.79-3L112.79-3Q114.39-3 115.82-3.38 117.24-3.75 118.39-4.45L118.39-4.45 117.49-2.3 117.49-36.5 121.39-36.5 121.39-1.1Q119.84-0.4 117.74 0.05 115.64 0.5 113.19 0.5ZM138.59 0.5L138.59 0.5Q126.04 0.5 126.04-8.85L126.04-8.85Q126.04-10.5 126.49-11.9 126.94-13.3 128.01-14.73 129.09-16.15 130.94-17.82 132.79-19.5 135.59-21.6L135.59-21.6Q137.74-23.35 138.91-24.55 140.09-25.75 140.54-26.75 140.99-27.75 140.99-28.85L140.99-28.85Q140.99-31.05 139.71-32.23 138.44-33.4 136.09-33.4L136.09-33.4Q133.79-33.4 132.49-32.23 131.19-31.05 131.19-28.85L131.19-28.85Q131.19-27.75 131.64-26.58 132.09-25.4 133.19-23.95 134.29-22.5 136.24-20.45L136.24-20.45 147.29-9 144.79-6.3 132.49-18.85Q129.89-21.55 128.54-24.13 127.19-26.7 127.19-29.25L127.19-29.25Q127.19-32.8 129.61-34.9 132.04-37 136.09-37L136.09-37Q140.14-37 142.56-34.9 144.99-32.8 144.99-29.25L144.99-29.25Q144.99-27.55 144.29-25.95 143.59-24.35 142.04-22.65 140.49-20.95 137.94-18.9L137.94-18.9Q135.54-17.15 134.01-15.83 132.49-14.5 131.64-13.43 130.79-12.35 130.46-11.33 130.14-10.3 130.14-9.1L130.14-9.1Q130.14-6 132.11-4.55 134.09-3.1 138.29-3.1L138.29-3.1Q140.14-3.1 141.66-3.38 143.19-3.65 144.84-4.2L144.84-4.2 143.64-1.95 143.64-20.65 147.54-20.65 147.54-0.8Q144.94-0.15 142.89 0.18 140.84 0.5 138.59 0.5ZM161.59 0.5L161.59 0.5Q159.44 0.5 157.56 0.18 155.69-0.15 153.84-0.85L153.84-0.85 153.84-4.4Q155.79-3.7 157.66-3.35 159.54-3 161.44-3L161.44-3Q164.64-3 166.19-3.95 167.74-4.9 167.74-6.85L167.74-6.85Q167.74-7.85 167.11-8.65 166.49-9.45 165.16-10.2 163.84-10.95 161.64-11.7L161.64-11.7Q158.59-12.7 156.74-13.83 154.89-14.95 154.06-16.4 153.24-17.85 153.24-19.8L153.24-19.8Q153.24-23.25 155.66-24.88 158.09-26.5 163.24-26.5L163.24-26.5Q164.99-26.5 166.74-26.28 168.49-26.05 170.99-25.4L170.99-25.4 170.99-17.75 167.09-17.75 167.09-24.75 168.89-22.35Q167.04-22.75 165.84-22.88 164.64-23 163.49-23L163.49-23Q160.34-23 158.79-22.18 157.24-21.35 157.24-19.65L157.24-19.65Q157.24-18.7 157.84-17.88 158.44-17.05 159.79-16.3 161.14-15.55 163.44-14.75L163.44-14.75Q166.49-13.7 168.31-12.58 170.14-11.45 170.94-10.03 171.74-8.6 171.74-6.65L171.74-6.65Q171.74-3.05 169.21-1.28 166.69 0.5 161.59 0.5ZM189.28 0.5L189.28 0.5Q183.43 0.5 180.58-2.58 177.73-5.65 177.73-12L177.73-12 177.73-14Q177.73-20.45 180.11-23.48 182.48-26.5 187.48-26.5L187.48-26.5Q192.53-26.5 194.88-23.48 197.23-20.45 197.23-14L197.23-14 197.23-11.3 179.68-11.3 179.68-14.55 194.23-14.55 193.33-13.4 193.33-13.85Q193.33-18.75 191.96-20.93 190.58-23.1 187.48-23.1L187.48-23.1Q184.38-23.1 183.01-20.93 181.63-18.75 181.63-13.85L181.63-13.85 181.63-12.15Q181.63-8.7 182.38-6.68 183.13-4.65 184.88-3.78 186.63-2.9 189.58-2.9L189.58-2.9Q191.03-2.9 192.56-3.1 194.08-3.3 195.83-3.75L195.83-3.75 195.83-0.3Q194.33 0.05 192.61 0.28 190.88 0.5 189.28 0.5ZM217.63 0.5L217.63 0.5Q213.53 0.5 211.76-1.3 209.98-3.1 209.98-7.35L209.98-7.35 209.98-33 201.98-33 201.98-36.5 213.98-36.5 213.98-8.2Q213.98-5.25 214.96-4.13 215.93-3 218.53-3L218.53-3Q219.83-3 220.91-3.23 221.98-3.45 222.98-3.85L222.98-3.85 222.98-0.35Q221.68 0.1 220.36 0.3 219.03 0.5 217.63 0.5ZM242.63 0.5L242.63 0.5Q238.53 0.5 236.75-1.3 234.98-3.1 234.98-7.35L234.98-7.35 234.98-33 226.98-33 226.98-36.5 238.98-36.5 238.98-8.2Q238.98-5.25 239.95-4.13 240.93-3 243.53-3L243.53-3Q244.83-3 245.9-3.23 246.98-3.45 247.98-3.85L247.98-3.85 247.98-0.35Q246.68 0.1 245.35 0.3 244.03 0.5 242.63 0.5ZM289.52 0L285.42 0 285.42-32.9 276.97-32.9 276.97-36.5 297.97-36.5 297.97-32.9 289.52-32.9 289.52 0ZM312.47 0.5L312.47 0.5Q308.62 0.5 306.32-1.18 304.02-2.85 303-6.65 301.97-10.45 301.97-16.75L301.97-16.75 301.97-19.75Q301.97-26.1 303-29.88 304.02-33.65 306.32-35.33 308.62-37 312.47-37L312.47-37Q316.32-37 318.62-35.33 320.92-33.65 321.95-29.88 322.97-26.1 322.97-19.75L322.97-19.75 322.97-16.75Q322.97-10.45 321.95-6.65 320.92-2.85 318.62-1.18 316.32 0.5 312.47 0.5ZM312.47-3.1L312.47-3.1Q314.97-3.1 316.35-4.33 317.72-5.55 318.3-8.58 318.87-11.6 318.87-17L318.87-17 318.87-19.5Q318.87-24.9 318.3-27.93 317.72-30.95 316.35-32.18 314.97-33.4 312.47-33.4L312.47-33.4Q310.02-33.4 308.62-32.18 307.22-30.95 306.65-27.93 306.07-24.9 306.07-19.5L306.07-19.5 306.07-17Q306.07-11.6 306.65-8.58 307.22-5.55 308.62-4.33 310.02-3.1 312.47-3.1ZM330.87 0L326.97 0 326.97-36.5 333.77-36.5 337.37-11.45 337.57-11.45 341.17-36.5 347.97-36.5 347.97 0 344.07 0 344.07-31.3 343.87-31.3 340.22-7 334.72-7 331.07-31.3 330.87-31.3 330.87 0ZM360.57 0.5L360.57 0.5Q359.32 0.5 357.39 0.38 355.47 0.25 353.22-0.1L353.22-0.1 353.22-36.4Q355.52-36.75 357.39-36.88 359.27-37 360.57-37L360.57-37Q366.47-37 369.37-34.7 372.27-32.4 372.27-27.75L372.27-27.75Q372.27-24.7 371.02-22.65 369.77-20.6 367.32-19.65L367.32-19.65 367.32-19.45Q370.32-18.6 371.77-16.4 373.22-14.2 373.22-10.5L373.22-10.5Q373.22-5.05 370.04-2.27 366.87 0.5 360.57 0.5ZM357.22-2.15L356.22-3.75Q357.52-3.4 358.67-3.25 359.82-3.1 361.02-3.1L361.02-3.1Q365.17-3.1 367.14-4.93 369.12-6.75 369.12-10.5L369.12-10.5Q369.12-14.25 367.14-15.93 365.17-17.6 360.87-17.6L360.87-17.6 355.22-17.6 355.22-21 360.47-21Q364.42-21 366.32-22.58 368.22-24.15 368.22-27.4L368.22-27.4Q368.22-30.5 366.47-31.95 364.72-33.4 361.02-33.4L361.02-33.4Q359.82-33.4 358.62-33.25 357.42-33.1 356.22-32.75L356.22-32.75 357.22-34.35 357.22-2.15ZM416.96 0L412.96 0 412.96-22.5 403.96-22.5 403.96-26 416.96-26 416.96 0ZM414.16-30.7L414.16-30.7Q412.56-30.7 411.59-31.63 410.61-32.55 410.61-34.1L410.61-34.1Q410.61-35.7 411.59-36.6 412.56-37.5 414.16-37.5L414.16-37.5Q415.76-37.5 416.74-36.6 417.71-35.7 417.71-34.1L417.71-34.1Q417.71-32.55 416.74-31.63 415.76-30.7 414.16-30.7ZM428.11 0L428.11-24.9Q430.01-25.75 432.16-26.13 434.31-26.5 437.01-26.5L437.01-26.5Q440.81-26.5 442.93-25.65 445.06-24.8 445.93-22.73 446.81-20.65 446.81-17L446.81-17 446.81 0 442.91 0 442.91-16.8Q442.91-19.25 442.41-20.6 441.91-21.95 440.63-22.48 439.36-23 437.06-23L437.06-23Q435.91-23 434.91-22.85 433.91-22.7 432.91-22.38 431.91-22.05 430.71-21.4L430.71-21.4 432.01-23.9 432.01 0 428.11 0ZM485.1 0L479.1 0 475.45-26 479.45-26 481.95-3 482.15-3 484.4-26 490.5-26 492.75-3 492.95-3 495.45-26 499.45-26 495.8 0 489.8 0 487.55-23.25 487.35-23.25 485.1 0ZM514.25 0.5L514.25 0.5Q508.4 0.5 505.55-2.58 502.7-5.65 502.7-12L502.7-12 502.7-14Q502.7-20.45 505.08-23.48 507.45-26.5 512.45-26.5L512.45-26.5Q517.5-26.5 519.85-23.48 522.2-20.45 522.2-14L522.2-14 522.2-11.3 504.65-11.3 504.65-14.55 519.2-14.55 518.3-13.4 518.3-13.85Q518.3-18.75 516.93-20.93 515.55-23.1 512.45-23.1L512.45-23.1Q509.35-23.1 507.98-20.93 506.6-18.75 506.6-13.85L506.6-13.85 506.6-12.15Q506.6-8.7 507.35-6.68 508.1-4.65 509.85-3.78 511.6-2.9 514.55-2.9L514.55-2.9Q516-2.9 517.53-3.1 519.05-3.3 520.8-3.75L520.8-3.75 520.8-0.3Q519.3 0.05 517.58 0.28 515.85 0.5 514.25 0.5ZM536.75 0.5L536.75 0.5Q534.3 0.5 532.2 0.05 530.1-0.4 528.55-1.1L528.55-1.1 528.55-36.5 532.45-36.5 532.45-2.3 531.55-4.45Q532.7-3.75 534.12-3.38 535.55-3 537.15-3L537.15-3Q539.6-3 541.02-3.98 542.45-4.95 543.05-7.25 543.65-9.55 543.65-13.45L543.65-13.45Q543.65-17.1 543.12-19.18 542.6-21.25 541.37-22.13 540.15-23 537.95-23L537.95-23Q536.35-23 534.85-22.6 533.35-22.2 531.75-21.35L531.75-21.35 530.5-24.65Q532.15-25.6 534.12-26.05 536.1-26.5 538.25-26.5L538.25-26.5Q541.7-26.5 543.72-25.25 545.75-24 546.65-21.15 547.55-18.3 547.55-13.5L547.55-13.5Q547.55-8.45 546.47-5.35 545.4-2.25 543.05-0.88 540.7 0.5 536.75 0.5ZM560.74 0.5L560.74 0.5Q559.04 0.5 556.94 0.2 554.84-0.1 552.94-0.75L552.94-0.75 552.94-4.55Q554.74-3.8 556.52-3.4 558.29-3 560.04-3L560.04-3Q567.84-3 567.84-10.7L567.84-10.7Q567.84-14.55 565.77-16.28 563.69-18 559.14-18L559.14-18 556.24-18 556.24-21.5 566.29-32.8 566.29-33 552.94-33 552.94-36.5 571.34-36.5 571.34-33 561.04-21.45 561.04-21.25 562.09-21.25Q566.84-21.25 569.39-18.53 571.94-15.8 571.94-10.7L571.94-10.7Q571.94-5.25 569.07-2.38 566.19 0.5 560.74 0.5ZM610.09 0L604.09 0 600.44-26 604.44-26 606.94-3 607.14-3 609.39-26 615.49-26 617.74-3 617.94-3 620.44-26 624.44-26 620.79 0 614.79 0 612.54-23.25 612.34-23.25 610.09 0ZM637.44 0.5L637.44 0.5Q632.29 0.5 629.86-2.53 627.44-5.55 627.44-12L627.44-12 627.44-14Q627.44-20.45 629.86-23.48 632.29-26.5 637.44-26.5L637.44-26.5Q642.64-26.5 645.04-23.48 647.44-20.45 647.44-14L647.44-14 647.44-12Q647.44-5.55 645.04-2.53 642.64 0.5 637.44 0.5ZM637.44-3L637.44-3Q640.69-3 642.06-5.15 643.44-7.3 643.44-12.25L643.44-12.25 643.44-13.75Q643.44-18.7 642.06-20.85 640.69-23 637.44-23L637.44-23Q634.24-23 632.84-20.85 631.44-18.7 631.44-13.75L631.44-13.75 631.44-12.25Q631.44-7.3 632.84-5.15 634.24-3 637.44-3ZM656.23 0L656.23-23.75Q658.68-24.6 661.51-25.2 664.33-25.8 667.11-26.15 669.88-26.5 672.23-26.5L672.23-26.5 672.23-23Q670.18-23 667.88-22.73 665.58-22.45 663.33-21.95 661.08-21.45 659.23-20.75L659.23-20.75 660.23-22.65 660.23 0 656.23 0ZM692.58 0.5L692.58 0.5Q688.48 0.5 686.71-1.3 684.93-3.1 684.93-7.35L684.93-7.35 684.93-33 676.93-33 676.93-36.5 688.93-36.5 688.93-8.2Q688.93-5.25 689.91-4.13 690.88-3 693.48-3L693.48-3Q694.78-3 695.86-3.23 696.93-3.45 697.93-3.85L697.93-3.85 697.93-0.35Q696.63 0.1 695.31 0.3 693.98 0.5 692.58 0.5ZM713.13 0.5L713.13 0.5Q709.23 0.5 706.85-0.88 704.48-2.25 703.4-5.35 702.33-8.45 702.33-13.5L702.33-13.5Q702.33-18.3 703.23-21.15 704.13-24 706.18-25.25 708.23-26.5 711.63-26.5L711.63-26.5Q713.78-26.5 715.75-26.05 717.73-25.6 719.38-24.65L719.38-24.65 718.13-21.35Q716.58-22.2 715.05-22.6 713.53-23 711.93-23L711.93-23Q709.78-23 708.53-22.13 707.28-21.25 706.75-19.18 706.23-17.1 706.23-13.45L706.23-13.45Q706.23-9.55 706.83-7.25 707.43-4.95 708.85-3.98 710.28-3 712.73-3L712.73-3Q714.33-3 715.75-3.38 717.18-3.75 718.33-4.45L718.33-4.45 717.43-2.3 717.43-36.5 721.33-36.5 721.33-1.1Q719.78-0.4 717.68 0.05 715.58 0.5 713.13 0.5Z" opacity="1" transform="matrix(1,0,0,1,0,0)" fill="#aaaaaa" class="slogan-text-1" data-fill-palette-color="secondary" id="text-1"></path></svg></g></svg></g></svg></g></svg></g><g transform="matrix(1,0,0,1,253.722317251977,0)"><svg viewBox="0 0 63.192962733279685 74.95476628769723" height="74.95476628769723" width="63.192962733279685"><g><svg xmlns="http://www.w3.org/2000/svg" xmlns:xlink="http://www.w3.org/1999/xlink" version="1.1" x="0" y="0" viewBox="20.5 16.6 59.099999999999994 70.1" style="enable-background:new 0 0 100 100;" xml:space="preserve" height="74.95476628769723" width="63.192962733279685" class="icon-icon-0" data-fill-palette-color="accent" id="icon-0"><g fill="#aaaaaa" data-fill-palette-color="accent"><path d="M53.1 16.6C52 16.6 51 16.7 50 16.8 49 16.7 47.9 16.6 46.9 16.6 32.3 16.6 20.5 28.5 20.5 43V86.7H79.6V43.1C79.6 28.5 67.7 16.6 53.1 16.6M28.7 84.7H22.5V43.1C22.5 31.3 30.8 21.5 41.9 19.2 43.2 18.9 44.6 18.7 46.1 18.7H47C48.1 18.7 49.1 18.8 50.1 18.9 62.1 20.4 71.4 30.7 71.4 43.1V84.8H28.7z" fill="#aaaaaa" data-fill-palette-color="accent"></path><path d="M39.3 42.5L54.3 42.3C54.9 42.3 55.3 41.8 55.3 41.3S54.8 40.3 54.3 40.3L39.3 40.5C38.7 40.5 38.3 41 38.3 41.5S38.7 42.5 39.3 42.5" fill="#aaaaaa" data-fill-palette-color="accent"></path><path d="M54.5 61.6L39.5 61.8C38.9 61.8 38.5 62.3 38.5 62.8S39 63.8 39.5 63.8L54.5 63.6C55.1 63.6 55.5 63.1 55.5 62.6S55.1 61.6 54.5 61.6" fill="#aaaaaa" data-fill-palette-color="accent"></path><path d="M61.9 50.5L31.9 50.9C31.3 50.9 30.9 51.4 30.9 51.9S31.4 52.9 31.9 52.9L61.9 52.5C62.5 52.5 62.9 52 62.9 51.5S62.4 50.6 61.9 50.5" fill="#aaaaaa" data-fill-palette-color="accent"></path></g></svg></g></svg></g></svg></g></svg></g></svg></g><g><path d="M245.816 0c68.262 0 123.6 55.338 123.6 123.6 0 68.262-55.338 123.6-123.6 123.6-57.019 0-105.02-38.61-119.286-91.111l1.419 0c14.229 51.737 61.609 89.743 117.867 89.742 67.506 0 122.231-54.725 122.231-122.231 0-67.506-54.725-122.231-122.231-122.231-56.257 0-103.638 38.006-117.867 89.742h-1.419c14.266-52.502 62.267-91.111 119.286-91.111z" fill="#aaaaaa" stroke="transparent" data-fill-palette-color="tertiary"></path></g></svg></g><defs></defs></svg><rect width="395.52" height="247.2" fill="none" stroke="none" visibility="hidden"></rect></g></svg></g></svg>